# xmcd
#
# Track frame offsets:
#	150
#	13863
#	28058
#	42427
#	55283
#	68391
#	79595
#	93825
#	116166
#	129280
#	142384
#	156769
#	168600
#	187561
#	201488
#	215279
#	227247
#	240210
#
# Disc length: 3414 seconds
#
# Revision: 1
# Processed by: cddbd v1.5.2PL0 Copyright (c) Steve Scherf et al.
# Submitted via: audiograbber 1.83.01
#
DISCID=f10d5412
DTITLE=Various Artist - 50-Luvun Hitit: Unohtumaton Ilta
DYEAR=2010
DGENRE=Oldies
TTITLE0=Eino Grön - Unhoita Menneet
TTITLE1=Helena Siltala - Ranskalaiset Korot
TTITLE2=Georg Ots - Unohtumaton Ilta
TTITLE3=Eila Pellinen - Kaksi Kitaraa
TTITLE4=Kalevi Korpi and Blue Sisters - Iltanuotiolla
TTITLE5=Jorma Lyytinen - Rakkauden Satu
TTITLE6=Olavi Virta - Kesäyön Valssi
TTITLE7=Tapio Rautavaara - Tytön Huivi
TTITLE8=Kauko Käyhkö - Soittajan Kaipuu
TTITLE9=Annikki Tähti - Pustan Sävel
TTITLE10=Jorma Lyytinen - Anastasia
TTITLE11=Olavi Virta - Kotilaaksomme
TTITLE12=Tapio Rautavaara - Lapsuuden Koti
TTITLE13=Helena Siltala - Pikku Midinetti
TTITLE14=Tapio Rautavaara - Kalle Aaltonen
TTITLE15=Eino Grön - Kenties
TTITLE16=Olavi Virta - Kuin Lapsena Ennen
TTITLE17=Tapio Rautavaara - Laulu On Iloni Ja Työni
EXTD=TR.
EXTT0=
EXTT1=
EXTT2=
EXTT3=
EXTT4=
EXTT5=
EXTT6=
EXTT7=
EXTT8=
EXTT9=
EXTT10=
EXTT11=
EXTT12=
EXTT13=
EXTT14=
EXTT15=
EXTT16=
EXTT17=
PLAYORDER=
